<svg xmlns="http://www.w3.org/2000/svg" viewBox="0 0 800 600">
  <!-- Arka plan deseni -->
  <defs>
    <pattern id="grid" width="30" height="30" patternUnits="userSpaceOnUse">
      <path d="M 30 0 L 0 0 0 30" fill="none" stroke="#E5E7EB" stroke-width="1" opacity="0.2"/>
    </pattern>
  </defs>
  <rect width="800" height="600" fill="url(#grid)" opacity="0.3"/>

  <!-- Ana ekran çerçevesi -->
  <rect x="100" y="50" width="600" height="400" rx="20" fill="#FFFFFF" stroke="#E5E7EB" stroke-width="2"/>
  
  <!-- Üst bar -->
  <rect x="100" y="50" width="600" height="40" rx="20" fill="#F3F4F6"/>
  <circle cx="140" cy="70" r="6" fill="#EF4444"/>
  <circle cx="170" cy="70" r="6" fill="#F59E0B"/>
  <circle cx="200" cy="70" r="6" fill="#10B981"/>

  <!-- Kod bloğu -->
  <rect x="120" y="110" width="280" height="320" rx="10" fill="#1F2937"/>
  
  <!-- Kod satırları -->
  <rect x="140" y="140" width="160" height="10" rx="2" fill="#6366F1" opacity="0.7"/>
  <rect x="140" y="160" width="200" height="10" rx="2" fill="#8B5CF6" opacity="0.7"/>
  <rect x="140" y="180" width="180" height="10" rx="2" fill="#EC4899" opacity="0.7"/>
  <rect x="140" y="210" width="220" height="10" rx="2" fill="#6366F1" opacity="0.7"/>
  <rect x="140" y="230" width="160" height="10" rx="2" fill="#8B5CF6" opacity="0.7"/>
  <rect x="140" y="250" width="190" height="10" rx="2" fill="#EC4899" opacity="0.7"/>
  <rect x="140" y="280" width="200" height="10" rx="2" fill="#6366F1" opacity="0.7"/>
  <rect x="140" y="300" width="180" height="10" rx="2" fill="#8B5CF6" opacity="0.7"/>
  <rect x="140" y="320" width="160" height="10" rx="2" fill="#EC4899" opacity="0.7"/>

  <!-- Sağ taraf UI elementleri -->
  <rect x="420" y="110" width="260" height="80" rx="10" fill="#F3F4F6"/>
  <rect x="440" y="130" width="140" height="10" rx="2" fill="#4B5563"/>
  <rect x="440" y="150" width="100" height="10" rx="2" fill="#6B7280"/>
  
  <rect x="420" y="210" width="260" height="80" rx="10" fill="#F3F4F6"/>
  <rect x="440" y="230" width="140" height="10" rx="2" fill="#4B5563"/>
  <rect x="440" y="250" width="100" height="10" rx="2" fill="#6B7280"/>
  
  <rect x="420" y="310" width="260" height="80" rx="10" fill="#F3F4F6"/>
  <rect x="440" y="330" width="140" height="10" rx="2" fill="#4B5563"/>
  <rect x="440" y="350" width="100" height="10" rx="2" fill="#6B7280"/>

  <!-- Floating elementler -->
  <circle cx="50" cy="150" r="20" fill="#3B82F6" opacity="0.2"/>
  <circle cx="750" cy="400" r="30" fill="#8B5CF6" opacity="0.2"/>
  <circle cx="720" cy="100" r="15" fill="#EC4899" opacity="0.2"/>
  <circle cx="80" cy="450" r="25" fill="#6366F1" opacity="0.2"/>
</svg>